PathFileType	4	(X/Y/Z)	 s04c0401.trc
DataRate	CameraRate	NumFrames	NumMarkers	Units	OrigDataRate	OrigDataStartFrame	OrigNumFrames
200	200	6	50	mm	200	1	2000
Frame#	Time	racr			lacr			c7			jug			rlel			rdr			llel			ldr			s2			lic			ric			lasi			rasi			rpsi			lpsi			rgt			lgt			rth1			rth2			rth3			rth4			rlfc			rmfc			rsh1			rsh2			rsh3			rsh4			rlmal			rmmal			rcal			rtoe			rmt5			lth1			lth2			lth4			lth3			llfc			lmfc			lsh1			lsh2			lsh3			lsh4			llmal			lmmal			lcal			ltoe			lmt5			SBIKE			LBIKE			RBIKE			
		X1	Y1	Z1	X2	Y2	Z2	X3	Y3	Z3	X4	Y4	Z4	X5	Y5	Z5	X6	Y6	Z6	X7	Y7	Z7	X8	Y8	Z8	X9	Y9	Z9	X10	Y10	Z10	X11	Y11	Z11	X12	Y12	Z12	X13	Y13	Z13	X14	Y14	Z14	X15	Y15	Z15	X16	Y16	Z16	X17	Y17	Z17	X18	Y18	Z18	X19	Y19	Z19	X20	Y20	Z20	X21	Y21	Z21	X22	Y22	Z22	X23	Y23	Z23	X24	Y24	Z24	X25	Y25	Z25	X26	Y26	Z26	X27	Y27	Z27	X28	Y28	Z28	X29	Y29	Z29	X30	Y30	Z30	X31	Y31	Z31	X32	Y32	Z32	X33	Y33	Z33	X34	Y34	Z34	X35	Y35	Z35	X36	Y36	Z36	X37	Y37	Z37	X38	Y38	Z38	X39	Y39	Z39	X40	Y40	Z40	X41	Y41	Z41	X42	Y42	Z42	X43	Y43	Z43	X44	Y44	Z44	X45	Y45	Z45	X46	Y46	Z46	X47	Y47	Z47	X48	Y48	Z48	X49	Y49	Z49	X50	Y50	Z50	
1	0.0050	470.302661	1477.988981	-115.486402	484.719662	1484.752197	-388.639881	452.508490	1524.871321	-261.106658	468.594187	1379.154496	-259.571999	510.643431	1169.903150	-15.360999	702.787258	947.967150	-73.339060	519.979415	1201.571804	-500.688866	701.134158	948.437895	-458.814261	-50.732473	1185.232552	-280.946016	115.842201	1194.288391	-429.507787	106.806413	1181.834435	-114.692077	147.240900	1145.390994	-383.120000	151.494811	1127.885113	-157.571197	-19.263364	1223.933904	-235.584565	-23.139023	1229.438987	-310.885862	51.748993	1119.970051	-100.288551	69.259916	1124.470705	-472.064339	135.516971	975.253363	-76.696838	194.510745	910.111815	-82.809767	216.816769	827.188733	-85.031754	224.473417	926.959325	-98.061986	269.230212	690.933507	-108.034825	251.158668	675.344275	-221.032379	196.421838	585.693089	-88.127633	172.001508	499.598987	-104.515125	105.895328	443.433851	-115.305941	199.906522	486.886482	-128.471061	35.388610	311.248498	-129.345856	61.231338	315.516313	-212.867746	-38.828856	299.798213	-172.022496	241.564696	194.569482	-151.401619	168.344437	192.296915	-99.376363	130.977385	1072.885914	-481.146684	216.181500	1061.483424	-489.484850	231.194556	1092.114940	-474.866186	286.038233	1007.175974	-502.220077	424.499910	920.216248	-486.222966	465.155287	906.156250	-379.089076	392.290578	807.607980	-501.060250	374.442209	726.214682	-472.357266	315.891208	660.072706	-462.177309	400.231524	720.218523	-443.497246	244.288810	535.516606	-439.921931	244.192253	545.241420	-352.463957	162.090415	517.860181	-393.564489	461.837839	488.187311	-402.982598	388.837579	454.069161	-463.178801	-177.737988	938.349068	-279.619420	-2.993995	85.930924	-485.075166	-15.036609	80.427888	-84.311882	
2	0.0100	470.193082	1477.929076	-115.468904	484.690053	1484.636490	-388.804461	452.520500	1524.935276	-261.243743	468.616297	1379.293656	-259.671963	510.443766	1169.798075	-15.337680	702.812278	948.068251	-73.113139	519.656963	1201.464722	-500.724544	700.995999	948.518574	-458.882921	-50.594530	1185.106780	-281.473543	115.966833	1194.112193	-429.620938	106.710220	1182.056318	-114.816334	147.089446	1145.095758	-382.750707	151.346799	1128.052749	-157.639165	-19.333735	1223.660494	-235.660213	-22.992468	1229.462375	-311.202292	51.654068	1120.149365	-100.370156	69.373274	1124.311219	-472.175416	135.383659	975.337753	-76.680281	194.318749	910.233735	-82.909131	216.632839	827.288825	-85.215991	224.386296	927.083449	-98.043305	269.206638	691.200098	-108.208494	251.037895	675.626387	-221.193660	196.361334	585.893838	-88.255684	171.813595	499.870658	-104.628537	105.669481	443.786758	-115.385827	199.683702	487.176172	-128.590294	34.978329	311.690561	-129.360173	60.889020	315.844433	-212.873803	-39.233745	300.216613	-172.027363	241.122614	194.889833	-151.407387	167.903533	192.669695	-99.392918	131.029169	1072.647964	-481.198980	216.208769	1061.157656	-489.520500	231.260164	1091.833152	-474.917436	286.020705	1006.849278	-502.213739	424.373933	919.728327	-486.202221	465.054260	905.665396	-379.055076	392.306227	807.014094	-501.081420	374.476416	725.642005	-472.339759	315.963484	659.448494	-462.224666	400.249486	719.637072	-443.407112	244.476515	534.841888	-439.965721	244.352253	544.531428	-352.462036	162.240153	516.995237	-393.575910	462.098627	488.010585	-402.974184	389.224123	453.716202	-463.179117	-177.745133	938.350106	-279.620914	-3.000335	85.935858	-485.084148	-15.029548	80.447853	-84.338064	
3	0.0150	470.040408	1477.881367	-115.393311	484.688806	1484.549282	-389.023759	452.539221	1525.005819	-261.344239	469.727955	1379.401381	-259.511978	510.255550	1169.706051	-15.339306	702.813941	948.138883	-72.989655	519.416914	1201.341631	-500.685749	700.923067	948.603037	-458.932838	-50.581581	1185.208177	-281.706114	116.047468	1193.965995	-429.728803	106.588753	1182.305071	-114.960286	147.028339	1144.912414	-382.647584	151.201962	1128.285316	-157.742817	-19.379094	1223.392415	-236.297986	-22.931239	1229.529323	-311.496685	51.471082	1120.434166	-100.432817	69.456284	1124.103413	-472.286770	135.167877	975.441790	-76.854336	194.179235	910.405869	-83.015614	216.498500	827.531927	-85.336846	224.241163	927.312856	-98.078726	269.206870	691.487905	-108.367134	251.013074	675.943132	-221.328750	196.367702	586.157851	-88.373345	171.692629	500.258732	-104.728115	105.481141	444.190639	-115.420489	199.583876	487.517926	-128.697680	34.755669	312.120942	-129.384248	60.691299	316.149629	-212.916711	-39.586943	300.739291	-172.054313	240.740402	195.264231	-151.410459	167.490423	193.080293	-99.381514	131.043481	1072.427469	-481.239005	216.215655	1060.868144	-489.564615	231.276878	1091.525171	-474.975493	285.963622	1006.470988	-502.179179	424.253554	919.199851	-486.122888	464.955988	905.059808	-379.083303	392.262681	806.524391	-501.047584	374.514265	725.071784	-472.290392	316.058326	658.786228	-462.165443	400.263495	719.042223	-443.284170	244.614145	534.210026	-439.949731	244.495012	543.888404	-352.478112	162.442857	516.162960	-393.599422	462.342169	487.866845	-402.966440	389.534485	453.425150	-463.169777	-177.747888	938.358023	-279.619021	-2.995406	85.921285	-485.073731	-15.027004	80.426414	-84.318911	
4	0.0200	469.918651	1477.837126	-115.296125	484.642089	1484.414082	-389.182342	452.523211	1525.087573	-261.489366	469.770843	1379.445730	-259.572222	510.120707	1169.619500	-15.356769	702.780632	948.173105	-72.967618	519.376615	1201.023398	-500.147083	700.932007	948.639064	-458.925123	-50.689006	1185.154069	-281.946690	116.122227	1193.829622	-429.840167	106.403251	1182.493057	-115.100028	147.133150	1144.848098	-382.885185	150.894849	1128.614781	-157.988791	-19.512140	1223.556608	-236.571147	-22.648431	1230.307291	-312.289235	51.298877	1120.716338	-100.510297	69.501866	1123.918131	-472.403035	135.131929	975.971201	-76.199946	194.551261	910.198749	-83.079619	216.441948	827.878236	-85.441770	224.091192	927.584430	-98.205065	269.319092	691.856644	-108.492814	251.052439	676.322410	-221.463211	196.422926	586.521080	-88.483635	170.776590	500.110715	-105.645204	105.384326	444.630894	-115.464969	199.552035	487.789324	-128.739094	34.516584	312.585755	-129.261549	60.520195	316.524341	-212.939163	-39.807133	301.283553	-172.048938	240.459397	195.435749	-151.427783	167.146500	193.425261	-99.399015	131.196204	1072.465496	-481.559059	216.188626	1060.604915	-489.602246	231.276177	1091.463426	-475.318845	285.902769	1006.118293	-502.156986	424.066278	918.765861	-486.009590	464.731530	904.657726	-378.988488	392.197691	805.916449	-500.989345	374.530054	724.473748	-472.347168	316.063408	658.151532	-462.153579	400.319486	718.574115	-443.546244	244.804064	533.365784	-439.731511	244.510678	543.321033	-352.218183	162.553589	515.358795	-393.610610	462.536726	487.721088	-402.945643	389.832943	453.154196	-463.157431	-177.808097	938.320738	-279.862250	-2.997065	85.936024	-485.082366	-15.036665	80.440742	-84.333456	
5	0.0250	469.821318	1477.793391	-115.189299	484.557608	1484.188953	-389.355149	452.501832	1525.000113	-261.454591	469.764942	1379.482325	-259.526269	510.032865	1169.600069	-15.419380	702.763261	948.213471	-72.971086	519.300815	1200.844223	-500.039633	700.981631	948.551556	-458.818857	-50.762318	1185.334308	-282.086142	116.134824	1193.751586	-429.995491	106.015503	1182.953476	-115.571815	147.230862	1144.788204	-383.167859	150.930678	1129.033645	-157.887150	-19.517054	1224.294539	-236.600283	-22.223405	1231.065417	-313.093411	51.124474	1121.165697	-100.598899	69.521343	1123.583305	-472.331096	134.975462	976.297745	-76.614773	194.671703	910.809868	-83.073204	216.566183	828.302962	-85.513746	223.976929	928.024290	-98.833618	269.482917	692.194713	-108.465340	251.142542	676.782261	-221.553600	196.525047	586.909095	-88.568335	170.856915	500.536388	-105.688545	105.369451	445.060005	-115.507346	199.616759	488.129977	-128.829188	34.460624	313.125203	-129.088279	60.399540	317.192426	-212.994008	-39.852997	301.868090	-171.974071	240.242043	195.628440	-151.499908	166.873057	193.662689	-99.748058	130.956978	1071.901997	-481.290262	216.106855	1060.204927	-489.527401	231.182367	1091.128598	-475.244823	285.777029	1005.691093	-502.019937	423.844593	918.282271	-485.859438	464.384823	904.058133	-378.957223	392.127291	805.240444	-500.571783	374.460804	723.962921	-472.218776	316.043455	657.639211	-462.077445	400.232513	718.049253	-443.498047	244.834955	532.757991	-439.603897	244.431767	542.557425	-352.329698	162.753427	514.466850	-393.702513	462.723909	487.652369	-402.976065	390.129135	452.884922	-463.172104	-177.789458	938.318230	-280.005747	-2.735123	86.204280	-484.790137	-15.008552	80.514229	-84.222830	
6	0.0300	469.697986	1477.752894	-115.068158	484.468550	1484.028130	-389.535971	452.507315	1525.158723	-261.765181	469.763619	1379.502490	-259.514305	510.059122	1169.596466	-15.434752	702.659702	948.197182	-73.096101	519.223241	1200.650616	-499.907116	701.238116	948.750126	-458.832724	-51.140265	1185.594543	-282.388181	116.116659	1193.672305	-430.134596	105.980162	1183.137813	-115.588066	147.187190	1144.676481	-383.260707	150.558950	1128.980432	-158.163188	-20.132220	1225.891923	-235.576823	-22.417320	1230.832486	-313.118092	50.845446	1121.430985	-100.738135	69.533477	1123.509710	-472.500231	134.914501	976.649124	-76.669084	194.597406	911.250662	-83.167102	216.642004	828.719528	-85.584304	223.952752	928.560044	-98.992296	269.654824	692.532057	-108.579272	251.331434	677.122113	-221.700105	196.708693	587.381397	-88.619901	170.933514	500.938930	-105.708774	105.366602	445.551775	-115.557804	199.659841	488.483614	-128.881638	34.434286	313.569315	-129.120966	60.333364	317.737721	-212.980511	-39.920091	302.476508	-172.017361	240.007186	195.794539	-151.515757	166.670061	193.889968	-99.763247	130.922935	1071.805431	-481.389679	216.089610	1060.063572	-489.613592	231.182425	1090.950893	-475.408725	285.699806	1005.368562	-502.029012	423.665425	917.877694	-485.787073	464.167703	903.694344	-378.690849	392.042342	804.756036	-500.516030	374.377273	723.440648	-472.160871	316.019216	657.056453	-462.059752	400.157417	717.487431	-443.324115	244.922749	532.163181	-439.728556	244.618200	542.018554	-352.217441	162.905919	513.674119	-393.756502	462.881540	487.534908	-402.954168	390.357622	452.578106	-463.170967	-177.775824	938.315832	-279.840862	-2.717778	86.111651	-484.934706	-15.011139	80.489075	-84.269966	
